{"title":"Universal Soldier-Regeneration.2009.SWESUB.DVDRip.XviD.AC3.(5.1)","uid":5685808,"size":1469239418,"categoryP":"video","categoryS":"movies","magnet":"?xt=urn:btih:5b98264f85b8aee19e7796c5d7b21ec064643cde&amp;dn=Universal+Soldier-Regeneration.2009.SWESUB.DVDRip.XviD.AC3.%285.1%29&amp;tr=udp%3A%2F%2Ftracker.openbittorrent.com%3A80&amp;tr=udp%3A%2F%2Fopen.demonii.com%3A1337&amp;tr=udp%3A%2F%2Ftracker.coppersurfer.tk%3A6969&amp;tr=udp%3A%2F%2Fexodus.desync.com%3A6969","seeders":0,"leechers":1,"uploader":"Zen_Bud","files":1,"time":1278925854,"description":"General\nComplete name                    : Universal Soldier-Regeneration.avi\nFormat                           : AVI\nFile size                        : 1.37 GiB\nDuration                         : 1h 36mn\nOverall bit rate                 : 2 022 Kbps\n\nVideo\n\nFormat                           : MPEG-4 Visual\nCodec ID/Hint                    : XviD\nDuration                         : 1h 36mn\nBit rate                         : 1 563 Kbps\nWidth                            : 720 pixels\nHeight                           : 496 pixels\nDisplay aspect ratio             : 2.065\nStream size                      : 1.06 GiB (77%)\nWriting library                  : XviD 1.1.2 (UTC 2006-11-01)\n\nAudio\n\nFormat                           : AC-3\nDuration                         : 1h 36mn\nBit rate                         : 448 Kbps\nChannel(s)                       : 6 channels\nChannel positions                : Front: L C R, Side: L R, LFE\nSampling rate                    : 48.0 KHz\nStream size                      : 310 MiB (22%)\n\n &lt;a href=&quot;\nhttp://www.imdb.com/title/tt1288403/&quot; rel=&quot;nofollow&quot; target=&quot;_NEW&quot;&gt;\nhttp://www.imdb.com/title/tt1288403/&lt;/a&gt;","torrent":{"xt":"urn:btih:5b98264f85b8aee19e7796c5d7b21ec064643cde","amp;dn":"Universal+Soldier-Regeneration.2009.SWESUB.DVDRip.XviD.AC3.%285.1%29","amp;tr":["udp%3A%2F%2Ftracker.openbittorrent.com%3A80","udp%3A%2F%2Fopen.demonii.com%3A1337","udp%3A%2F%2Ftracker.coppersurfer.tk%3A6969","udp%3A%2F%2Fexodus.desync.com%3A6969"],"infoHash":"5b98264f85b8aee19e7796c5d7b21ec064643cde","infoHashBuffer":{"type":"Buffer","data":[91,152,38,79,133,184,174,225,158,119,150,197,215,178,30,192,100,100,60,222]},"announce":[],"urlList":[]}}